<svg xmlns="http://www.w3.org/2000/svg" width="28" height="28" viewBox="0 0 28 28">
    <path fill="#474971" fill-rule="nonzero" d="M9.234 21.049H25.2a.835.835 0 0 0 .592-.24.81.81 0 0 0 .24-.59V6.773a.801.801 0 0 0-.238-.583.832.832 0 0 0-.596-.239H2.8a.835.835 0 0 0-.592.24.81.81 0 0 0-.24.59v13.446a.801.801 0 0 0 .238.583c.156.155.37.241.596.239h6.432zm0 .95H2.806a1.806 1.806 0 0 1-1.286-.519A1.74 1.74 0 0 1 1 20.22V6.786a1.75 1.75 0 0 1 .521-1.265A1.81 1.81 0 0 1 2.802 5h22.392c.482-.004.946.183 1.286.52.34.337.528.794.52 1.26v13.433a1.75 1.75 0 0 1-.521 1.265 1.81 1.81 0 0 1-1.281.522H9.234zM1.484 8.686h25.032v3.21H1.484v-3.21zm2.177 9.764a.48.48 0 0 1-.484-.476.48.48 0 0 1 .484-.475h2.176a.48.48 0 0 1 .484.475.48.48 0 0 1-.484.476H3.661zm4.353 0a.48.48 0 0 1-.484-.476.48.48 0 0 1 .484-.475h7.619a.48.48 0 0 1 .483.475.48.48 0 0 1-.483.476H8.014z"/>
</svg>
