<svg xmlns="http://www.w3.org/2000/svg" width="203" height="32" viewBox="0 0 203 32">
    <g fill="none" fill-rule="evenodd">
        <text fill="#474971" font-family="Montserrat-Medium, Montserrat" font-size="20" font-weight="400">
            <tspan x="56" y="23">Front-End Test</tspan>
        </text>
        <path fill="#FFF" d="M22.149 7.841h6.28V1.568h-6.28v6.273zm-1.57 1.569H30V0h-9.421v9.41zM4.71 4.705v3.962h4.22c2.677 0 4.198 1.298 4.198 3.668 0 2.43-1.52 3.76-4.198 3.76h-4.22V8.667H0V26h4.71v-5.943h4.465c5.414 0 8.517-2.936 8.517-7.889 0-4.709-3.103-7.463-8.517-7.463H4.71zm19.008 1.568h3.14V3.136h-3.14v3.137z"/>
        <path fill="#474971" d="M42 0h2v32h-2z"/>
    </g>
</svg>
