<svg xmlns="http://www.w3.org/2000/svg" width="32" height="32" viewBox="0 0 32 32"><defs><linearGradient id="a" x1="50%" x2="50%" y1="0%" y2="100%"><stop offset="0%" stop-color="#B4F4E5"/><stop offset="100%" stop-color="#7DE6C6"/></linearGradient></defs><path fill="url(#a)" fill-rule="evenodd" d="M16 32C7.163 32 0 24.837 0 16S7.163 0 16 0s16 7.163 16 16-7.163 16-16 16zm1.715-12.74c0 .24-.04.464-.117.669a1.435 1.435 0 0 1-.352.532c-.156.15-.35.267-.581.352-.231.084-.5.126-.806.126-.267 0-.529-.037-.786-.112a1.713 1.713 0 0 1-.688-.39 1.948 1.948 0 0 1-.484-.743c-.12-.309-.18-.695-.18-1.157h-2.823c0 .781.118 1.452.352 2.012.234.56.547 1.024.938 1.391.39.368.838.65 1.342.845a6.164 6.164 0 0 0 1.568.381V25.1h1.552v-1.944a5.495 5.495 0 0 0 1.597-.39 3.883 3.883 0 0 0 1.226-.801c.338-.332.6-.726.786-1.182a4.06 4.06 0 0 0 .278-1.543c0-.631-.102-1.178-.308-1.64a3.722 3.722 0 0 0-.864-1.216 5.851 5.851 0 0 0-1.333-.923 20.25 20.25 0 0 0-1.723-.781 8.719 8.719 0 0 1-.982-.454 2.677 2.677 0 0 1-.635-.47 1.436 1.436 0 0 1-.337-.541 2.061 2.061 0 0 1-.097-.654c0-.241.032-.466.097-.674.066-.209.166-.39.303-.542a1.42 1.42 0 0 1 .523-.362c.211-.087.464-.131.757-.131.54 0 .971.193 1.293.58.323.388.484.972.484 1.754h2.822a5.62 5.62 0 0 0-.259-1.763 4.126 4.126 0 0 0-.737-1.362 3.803 3.803 0 0 0-1.162-.938 4.59 4.59 0 0 0-1.524-.478v-2.12h-1.562v2.09a5.096 5.096 0 0 0-1.587.406 4.03 4.03 0 0 0-1.216.825 3.507 3.507 0 0 0-.781 1.191c-.182.456-.273.96-.273 1.514 0 .638.102 1.188.307 1.65.205.462.493.866.864 1.211.372.345.817.65 1.338.913.521.264 1.1.516 1.739.757.37.137.685.277.942.42.257.143.467.3.63.469.163.169.28.358.351.566.072.208.108.45.108.723z"/></svg>