<svg xmlns="http://www.w3.org/2000/svg" width="20" height="20" viewBox="0 0 20 20">
    <path fill="#EF5778" fill-rule="evenodd" d="M10 20C4.477 20 0 15.523 0 10S4.477 0 10 0s10 4.477 10 10-4.477 10-10 10zm1.207-7.641l.38-8.769H8.422l.379 8.769h2.405zM8.334 15.09c0 .212.04.409.12.59.079.183.192.34.339.472.147.133.32.237.52.313.2.077.423.115.67.115.246 0 .47-.038.67-.115.199-.076.372-.18.52-.313.146-.132.26-.289.338-.471.08-.182.12-.379.12-.59 0-.212-.04-.409-.12-.59a1.354 1.354 0 0 0-.339-.472 1.648 1.648 0 0 0-.52-.313 1.863 1.863 0 0 0-.67-.115c-.246 0-.47.038-.67.115-.2.076-.372.18-.52.313-.146.132-.26.289-.339.471-.079.182-.119.379-.119.59z"/>
</svg>
