<svg xmlns="http://www.w3.org/2000/svg" width="28" height="28" viewBox="0 0 28 28">
    <defs>
        <linearGradient id="a" x1="50%" x2="50%" y1="0%" y2="100%">
            <stop offset="0%" stop-color="#B4F4E5"/>
            <stop offset="100%" stop-color="#7DE6C6"/>
        </linearGradient>
    </defs>
    <path fill="url(#a)" fill-rule="evenodd" d="M14 28C6.268 28 0 21.732 0 14S6.268 0 14 0s14 6.268 14 14-6.268 14-14 14zm1.5-11.148c0 .211-.034.406-.102.586-.068.18-.17.334-.308.465a1.438 1.438 0 0 1-.508.308 2.046 2.046 0 0 1-.705.111c-.234 0-.463-.033-.688-.098a1.5 1.5 0 0 1-.602-.342 1.704 1.704 0 0 1-.423-.65c-.106-.27-.158-.608-.158-1.012h-2.47c0 .684.103 1.27.308 1.76.205.49.478.896.82 1.218.342.322.733.568 1.175.739.441.17.899.282 1.371.333v1.692h1.36v-1.7a4.808 4.808 0 0 0 1.396-.342c.419-.177.776-.41 1.073-.7a3.03 3.03 0 0 0 .687-1.035c.163-.398.244-.848.244-1.35 0-.552-.09-1.03-.27-1.435a3.257 3.257 0 0 0-.755-1.064 5.12 5.12 0 0 0-1.167-.808 17.718 17.718 0 0 0-1.508-.683 7.629 7.629 0 0 1-.859-.398 2.342 2.342 0 0 1-.555-.41 1.257 1.257 0 0 1-.295-.474 1.804 1.804 0 0 1-.085-.573c0-.21.028-.407.085-.59a1.27 1.27 0 0 1 .265-.473c.12-.134.272-.24.457-.317.185-.076.406-.115.662-.115.473 0 .85.17 1.133.509.281.338.422.85.422 1.533h2.47c0-.57-.076-1.083-.226-1.542a3.61 3.61 0 0 0-.646-1.192 3.328 3.328 0 0 0-1.016-.82 4.016 4.016 0 0 0-1.333-.419V5.71H13.38v1.828c-.512.052-.975.17-1.388.355a3.527 3.527 0 0 0-1.064.722 3.07 3.07 0 0 0-.684 1.042c-.16.4-.239.84-.239 1.325 0 .558.09 1.04.27 1.444.179.404.43.758.755 1.06.325.302.715.568 1.171.799.456.23.963.451 1.521.662.325.12.6.242.825.367.225.126.408.262.55.41.143.148.246.314.308.496.063.182.094.393.094.632z"/>
</svg>
