<?xml version="1.0" encoding="utf-8"?>
<!-- Generator: Adobe Illustrator 22.0.1, SVG Export Plug-In . SVG Version: 6.00 Build 0)  -->
<svg version="1.1" id="Camada_1" xmlns="http://www.w3.org/2000/svg" xmlns:xlink="http://www.w3.org/1999/xlink" x="0px" y="0px"
	 viewBox="0 0 30 26" style="enable-background:new 0 0 30 26;" xml:space="preserve">
<style type="text/css">
	.st0{fill:#FEFEFE;}
</style>
<g>
	<path class="st0" d="M17.4,9.9c-0.5-2-1.8-3.5-3.7-4.3c-1.4-0.6-2.8-0.8-4.3-0.8c-1.5,0-3,0-4.4,0c-0.2,0-0.2,0.1-0.2,0.2
		c0,1.2,0,2.5,0,3.7c-1.5,0-3,0-4.5,0C0.1,8.7,0,8.7,0,8.9c0,5.6,0,11.3,0,16.9C0,26,0.1,26,0.3,26c1.4,0,2.8,0,4.2,0
		c0.2,0,0.2-0.1,0.2-0.3c0-1.8,0-3.6,0-5.4c0-0.2,0-0.3,0.3-0.3c1.4,0,2.8,0,4.1,0c1.4,0,2.7-0.2,4-0.7c1.3-0.5,2.4-1.3,3.2-2.5
		c0.7-1,1.1-2.2,1.3-3.4C17.7,12.3,17.7,11.1,17.4,9.9z M12.9,13.2c-0.3,1.3-1.1,2.2-2.4,2.5C10,15.9,9.4,16,8.8,16
		c-1.2,0-2.4,0-3.7,0c-0.3,0-0.3-0.1-0.3-0.3c0-0.1,0-0.2,0-0.3c0-2.1,0-4.2,0-6.3c0-0.1,0-0.3-0.1-0.4C4.9,8.8,5,8.8,5.1,8.8
		c1.2,0,2.5,0,3.7,0c0.6,0,1.2,0.1,1.8,0.2c1.1,0.3,1.9,1,2.3,2.2C13.1,11.8,13.1,12.5,12.9,13.2z"/>
	<path class="st0" d="M30,4.7c0-1.5,0-3,0-4.5c0-0.2,0-0.2-0.2-0.2c-3,0-6,0-8.9,0c-0.2,0-0.2,0-0.2,0.2c0,3,0,6,0,9
		c0,0.2,0,0.2,0.2,0.2c3,0,6,0,9,0c0.2,0,0.2,0,0.2-0.2C30,7.7,30,6.2,30,4.7z M28.4,7.6c0,0.2-0.1,0.2-0.2,0.2c-1.9,0-3.9,0-5.8,0
		c-0.2,0-0.2-0.1-0.2-0.2c0-1.9,0-3.9,0-5.8c0-0.2,0.1-0.2,0.2-0.2c1,0,1.9,0,2.9,0c1,0,1.9,0,2.9,0c0.2,0,0.2,0,0.2,0.2
		C28.4,3.7,28.4,5.7,28.4,7.6z"/>
	<path class="st0" d="M26.8,6.1c0,0.1,0,0.2-0.2,0.2c-0.5,0-1,0-1.4,0c-0.5,0-0.9,0-1.4,0c-0.1,0-0.2,0-0.2-0.2c0-0.9,0-1.9,0-2.8
		c0-0.1,0-0.2,0.2-0.2c0.9,0,1.9,0,2.8,0c0.1,0,0.2,0,0.2,0.2C26.8,4.2,26.8,5.2,26.8,6.1z"/>
</g>
</svg>
